<?xml version="1.0" encoding="UTF-8" standalone="no"?>
<svg
   version="1.2"
   viewBox="0 0 512.00001 378.23022"
   width="512"
   height="378.23022"
   id="svg20"
   sodipodi:docname="CNP Assurances logo 2024.svg"
   inkscape:version="1.4 (86a8ad7, 2024-10-11)"
   xmlns:inkscape="http://www.inkscape.org/namespaces/inkscape"
   xmlns:sodipodi="http://sodipodi.sourceforge.net/DTD/sodipodi-0.dtd"
   xmlns="http://www.w3.org/2000/svg"
   xmlns:svg="http://www.w3.org/2000/svg"
   xmlns:rdf="http://www.w3.org/1999/02/22-rdf-syntax-ns#"
   xmlns:cc="http://creativecommons.org/ns#"
   xmlns:dc="http://purl.org/dc/elements/1.1/">
  <defs
     id="defs20" />
  <sodipodi:namedview
     id="namedview20"
     pagecolor="#ffffff"
     bordercolor="#000000"
     borderopacity="0.25"
     inkscape:showpageshadow="2"
     inkscape:pageopacity="0.0"
     inkscape:pagecheckerboard="0"
     inkscape:deskcolor="#d1d1d1"
     inkscape:zoom="0.1644958"
     inkscape:cx="-735.5811"
     inkscape:cy="398.18646"
     inkscape:window-width="1920"
     inkscape:window-height="1001"
     inkscape:window-x="-9"
     inkscape:window-y="-9"
     inkscape:window-maximized="1"
     inkscape:current-layer="svg20" />
  <title
     id="title1">a24f06c3-svg</title>
  <style
     id="style1">
		.s0 { fill: #002364 } 
		.s1 { fill: #d70064 } 
		.s2 { fill: #39a8e5 } 
		.s3 { fill: #ffffff } 
	</style>
  <g
     id="g20"
     transform="matrix(0.15894698,0,0,0.15894698,-0.04768409,0)">
    <path
       fill-rule="evenodd"
       class="s0"
       d="M 0.3,0 H 1984.6 V 1984.3 H 0.4 Z"
       id="path1" />
    <path
       class="s1"
       d="m 1984.5,992.1 h 241.7 v 992.2 h -241.7 z"
       id="path2" />
    <path
       fill-rule="evenodd"
       class="s2"
       d="m 989.3,920.8 c 258.6,-332.2 662.4,-545.9 1116.1,-545.9 453.7,0 857.4,213.7 1116.1,545.9 h -328.1 c -208.1,-189.1 -484.6,-304.4 -788,-304.4 -303.4,0 -579.9,115.3 -788.1,304.4 z"
       id="path3" />
    <path
       class="s3"
       d="M 840.5,334.1 H 473.9 L 175.8,522.8 c -3.6,2.9 -0.6,8.5 3.7,7.3 L 842.8,350.4 c 3,-0.8 6,-3.6 6,-8 0,-5 -4.1,-8.3 -8.3,-8.3 z"
       id="path4" />
    <path
       class="s3"
       d="m 529.3,525.8 c 23.4,-0.5 50.7,-13.9 63.2,-35.6 l 28.8,-50.1 -332.6,90.2 z"
       id="path5" />
    <path
       class="s3"
       d="m 327,238.6 146.9,66.8 h 225 l 18.7,-32.3 c 11.1,-19.4 -2.4,-42.7 -22.7,-42.7 H 328.6 c -5,0 -6.2,6.1 -1.6,8.2 z"
       id="path6" />
    <path
       class="s3"
       d="m 861.4,1433.4 236.4,304 h 99.9 v -497.3 h -110.2 v 303.7 L 851,1240.1 h -99.9 v 497.3 h 110.3 z"
       id="path7" />
    <path
       class="s3"
       d="m 438.7,1751.7 c 84.9,0 160.4,-40.2 208.5,-102.6 l -89.6,-68.4 c -88.4,115.8 -267.9,53.4 -267.7,-92.1 0,-84.6 66.6,-153.4 148.8,-153.4 43.4,0 90.6,25.6 118.9,61.3 l 89.6,-68.4 c -48.1,-62.4 -123.6,-102.6 -208.5,-102.6 -348.9,13.5 -348.8,512.8 0,526.2 z"
       id="path8" />
    <path
       fill-rule="evenodd"
       class="s3"
       d="m 1473.3,1618.3 v 119.1 h -110.2 v -497.3 h 257.2 c 249.7,9.1 250.6,369.3 0,378.2 z m 0,-109.8 h 141.1 c 104.4,-2.7 104.5,-155.9 0,-158.5 h -141.1 z"
       id="path9" />
    <g
       id="g19">
      <path
         class="s0"
         d="m 1414.1,2194.3 v -15.6 h -39.8 v 194.4 h 39.8 v -101.5 c 0,-15.4 1.3,-35 12.7,-48.1 16.3,-18.7 66.3,-25.4 65.5,31 v 118.6 h 39.8 v -119.5 c 0,-90.4 -82,-94 -118,-59.3 z"
         id="path10" />
      <path
         fill-rule="evenodd"
         class="s0"
         d="m 1933.6,2173.7 c 51.7,0 92.5,43.4 93.7,102.7 0.1,4.5 -0.2,8.6 -0.7,12.5 l -145.7,-0.1 0.5,3.8 c 5.6,29.7 26.8,48.7 55,48.7 21.4,0 37.5,-9.4 50.5,-29.7 l 34.4,19.6 c -19.3,31.3 -49.5,47.9 -87.5,47.9 -54.5,0 -94,-43.2 -94,-102.7 0,-59.5 39.5,-102.7 93.8,-102.7 z m 52.5,83.4 c -6.9,-31.4 -29.7,-45.6 -50,-45.6 -22.3,0 -47.1,14.2 -54.1,45.6 z"
         id="path11" />
      <path
         fill-rule="evenodd"
         class="s0"
         d="m 155.5,2178.7 h 39.9 v 194.5 h -39.9 v -20 c -14.2,15.8 -40,25.9 -61.2,25.9 -53.5,0 -93.9,-42.6 -93.9,-102.3 0,-59.7 39.7,-103 94.3,-103 19.9,0 45.7,8.5 60.8,25.4 z m 1.8,95.9 c 0,-35.2 -22.1,-63.6 -59.1,-63.6 -34.8,0 -57.2,28.7 -57.2,63.2 0,34.4 20.2,66.9 57.6,66.9 38.5,0 58.7,-31.3 58.7,-66.5 z"
         id="path12" />
      <path
         fill-rule="evenodd"
         class="s0"
         d="m 1241.9,2178.7 h 40 v 194.5 h -40 v -20 c -14.1,15.8 -40,25.9 -61.2,25.9 -53.5,0 -93.8,-42.6 -93.8,-102.3 0,-59.7 39.6,-103 94.2,-103 19.9,0 45.8,8.5 60.8,25.4 z m 1.8,95.9 c 0,-35.2 -22.1,-63.6 -59.1,-63.6 -34.8,0 -57.2,28.7 -57.2,63.2 0,34.4 20.2,66.9 57.6,66.9 38.5,0 58.7,-31.3 58.7,-66.5 z"
         id="path13" />
      <path
         class="s0"
         d="m 2179.9,2258 q -4.1,-1.7 -8.1,-3.3 c -18.5,-7.4 -34.4,-13.7 -34.4,-26.9 0,-10.2 10.9,-17.9 20.6,-17.9 17.6,0 24.6,20.4 24.6,20.4 l 32.6,-16.8 c 0,0 -14.1,-39.3 -54.7,-39.3 -34.2,0 -60.1,24.2 -60.1,56.4 0,34.3 26.9,45.4 50.6,55.2 19.2,7.9 35.7,14.8 35.7,32 0,15.3 -11.4,26 -27.9,26 -26,0 -37.6,-31 -37.6,-31 l -34.1,14.2 c 0,0 13.2,52.5 71.3,52.5 38,0 67.8,-28.3 67.8,-64.5 0,-33.4 -23.4,-47.5 -46.3,-57 z"
         id="path14" />
      <path
         class="s0"
         d="m 560.3,2257.5 q -4.1,-1.6 -8,-3.2 c -18.4,-7.4 -34.3,-13.8 -34.3,-26.9 0,-10.3 10.8,-18 20.5,-18 17.5,0 24.5,20.4 24.5,20.4 l 32.4,-16.8 c 0,0 -14.1,-39.3 -54.4,-39.3 -34,0 -59.7,24.3 -59.7,56.5 0,34.2 26.7,45.3 50.2,55.1 19.1,7.9 35.6,14.8 35.6,32.1 0,15.3 -11.4,25.9 -27.8,25.9 -25.8,0 -37.3,-31 -37.3,-31 l -34,14.2 c 0,0 13.1,52.6 70.9,52.6 37.8,0 67.4,-28.4 67.4,-64.5 0,-33.5 -23.3,-47.6 -46,-57 z"
         id="path15" />
      <path
         class="s0"
         d="m 363.4,2257.5 q -4,-1.6 -8,-3.2 c -18.4,-7.4 -34.3,-13.8 -34.3,-26.9 0,-10.3 10.9,-18 20.5,-18 17.5,0 24.5,20.4 24.5,20.4 l 32.4,-16.8 c 0,0 -14.1,-39.3 -54.4,-39.3 -34,0 -59.7,24.3 -59.7,56.5 0,34.2 26.7,45.3 50.3,55.1 19,7.9 35.5,14.8 35.5,32.1 0,15.3 -11.4,25.9 -27.7,25.9 -25.9,0 -37.4,-31 -37.4,-31 l -33.9,14.2 c 0,0 13.1,52.6 70.8,52.6 37.8,0 67.4,-28.4 67.4,-64.5 0,-33.5 -23.3,-47.6 -46,-57 z"
         id="path16" />
      <path
         class="s0"
         d="m 967.6,2193.6 v -15.2 h -39.9 v 194.7 h 39.9 v -113.8 q 0,-47.7 31.8,-47.7 c 7.1,0 14.1,2.5 21.6,7.8 l 17.6,-35.4 c -10.9,-6.7 -21.9,-10.2 -31.8,-10.2 -16.6,0 -26.5,6.3 -39.2,19.8 z"
         id="path17" />
      <path
         class="s0"
         d="m 796.2,2285.9 c 0,36.5 -6.5,57.5 -38.4,57.5 -31.9,0 -38,-19.8 -38,-57.5 v -107.3 h -40.9 v 114.5 c 0,57.5 28.5,86.5 78.9,86.5 53.7,0 79.3,-33.6 79.3,-86.5 v -114.5 h -40.9 z"
         id="path18" />
      <path
         class="s0"
         d="m 1707.6,2343.5 c -36.3,0 -64.7,-29.5 -64.7,-67.1 0,-37.7 28.4,-67.1 64.7,-67.1 30.8,0 52.1,22.9 52.1,22.9 l 22.3,-26.3 c 0,0 -30.5,-31.7 -72.4,-32.3 -58.1,-0.6 -103.7,45.2 -103.8,102.8 0.1,57.6 45.7,102.7 103.8,102.7 46.7,0 74.7,-34.3 74.7,-34.3 l -22.3,-26.3 c 0,0 -23,25 -54.4,25 z"
         id="path19" />
    </g>
  </g>
  <metadata
     id="metadata20">
    <rdf:RDF>
      <cc:Work
         rdf:about="">
        <dc:title>a24f06c3-svg</dc:title>
      </cc:Work>
    </rdf:RDF>
  </metadata>
</svg>
