<?xml version="1.0" encoding="utf-8"?>
<!-- Generator: Adobe Illustrator 22.1.0, SVG Export Plug-In . SVG Version: 6.00 Build 0)  -->
<svg version="1.1" id="artwork" xmlns="http://www.w3.org/2000/svg" xmlns:xlink="http://www.w3.org/1999/xlink" x="0px" y="0px"
	 viewBox="0 0 204.2 158.6" style="enable-background:new 0 0 204.2 158.6;" xml:space="preserve">
<style type="text/css">
	.st0{fill:#5B6971;}
	.st1{fill:#8F7332;}
	.st2{fill:none;}
</style>
<title>20J12671E_COVEAlogo_RGB</title>
<path class="st0" d="M91.8,86.4c-11.3,3.2-22.9,4.8-34.6,4.9c-10.9,0-20.6-2-29-6C20.2,81.7,13.4,76.1,8.4,69
	c-4.7-6.9-7.2-15-7.1-23.3c0-13.1,5.4-24,16.1-32.7S41,0,56.2,0c12,0.1,24,1.8,35.6,5.1v13.9c-12.6-4.5-23.9-6.8-33.8-6.8
	c-6.4,0-12.7,1.3-18.6,3.9c-5.7,2.5-10.4,6.7-13.5,12.1c-3.1,5.1-4.7,11-4.8,17c0,7.7,3,15.1,9.2,22.1S45.9,77.9,59,77.9
	c3.9,0,7.8-0.2,11.6-0.7c3.8-0.4,10.8-2,21.1-4.8L91.8,86.4z"/>
<path class="st0" d="M187.9,78.3c9.3-8.6,13.9-19.6,13.9-32.8s-4.6-24.1-13.9-32.6C178.6,4.3,166.3,0,150.8,0
	c-15.4,0-27.8,4.3-37.2,12.9c-9.3,8.6-13.9,19.5-13.9,32.6s4.6,24,13.9,32.7c9.3,8.7,21.7,13,37.2,13S178.7,86.9,187.9,78.3
	 M128,70.2c-5.6-5.9-8.4-14.1-8.4-24.6c0-10.3,2.8-18.5,8.4-24.4c5.6-6,13.2-8.9,22.8-8.9c9.5,0,17.1,3,22.7,8.9
	c5.6,6,8.4,14.1,8.4,24.4c0,10.4-2.8,18.6-8.4,24.6S160.4,79,150.8,79C141.2,79,133.6,76.1,128,70.2"/>
<polygon class="st1" points="33,156.6 1.4,98.7 14.5,98.7 39.6,144.7 64.9,98.7 77,98.7 45.2,156.6 "/>
<path class="st1" d="M132.2,142.4c-9.4,4.1-18.1,6.2-25.9,6.2c-4,0.1-8-0.8-11.7-2.4c-3.4-1.6-6.3-4.2-8.3-7.4
	c-2.1-3.3-3.2-7.1-3.2-11h50v-2.1c0-10.2-2.6-17.7-7.8-22.6c-5.2-4.9-12.2-7.3-20.8-7.3c-6.1-0.1-12.2,1.3-17.7,4.1
	c-5.1,2.5-9.4,6.5-12.4,11.4c-2.9,4.6-4.4,9.8-4.4,15.2c0,5.5,1.6,10.9,4.7,15.4c3,4.8,7.3,8.6,12.4,11.1c5.5,2.7,11.5,4,17.6,3.9
	c9.4-0.2,18.7-2,27.5-5.6L132.2,142.4z M91.4,108.1c3.6-2.8,8.1-4.3,12.7-4.2c4.9,0,8.7,1.4,11.6,4.1s4.4,6.4,4.4,11.1v1.4H83.8
	C85.3,115,87.8,110.9,91.4,108.1"/>
<path class="st1" d="M143.1,59c6.6-3.3,12.8-7.2,18.6-11.8c9.1-7.3,13.1-12.7,13.1-12.7h-20.2c0,0-8.7,10-15.6,15.6
	C133,55.1,127,59,127,59L143.1,59z"/>
<path class="st1" d="M190,157h12.5c-1.6-4.4-2.4-10.1-2.4-17.1V99.1h-12.1c-1.4-0.1-2.4-0.2-3.1-0.2c-4.6-0.4-8.1-0.5-10.4-0.5
	c-7.9,0-14.6,1.5-19.9,4.6c-5.3,3-9.7,7.3-12.8,12.5c-3.2,5.4-4.9,11.6-4.8,17.9c0,8.5,2.4,14.8,7.2,19c4.5,4,10.3,6.2,16.3,6.2
	c4.9-0.2,9.8-1.4,14.2-3.7c5.2-2.5,9.8-6.3,13.2-11C188.3,148.3,189,152.7,190,157 M176,144.6c-4.5,3-8.6,4.5-12.4,4.5
	c-3.5-0.1-6.9-1.6-9.2-4.3c-2.7-2.9-4-7.2-4-12.9c0-7.9,2.5-14.1,7.4-18.6c4.9-4.6,11.1-6.9,18.5-6.9c4,0,8,0.5,11.9,1.4v24.7
	C184.9,137.2,180.7,141.3,176,144.6"/>
<rect x="-23.2" y="-24.4" class="st2" width="250.2" height="207.5"/>
</svg>
