<svg xmlns="http://www.w3.org/2000/svg" xmlns:xlink="http://www.w3.org/1999/xlink" width="225" zoomAndPan="magnify" viewBox="0 0 168.75 239.249991" height="319" preserveAspectRatio="xMidYMid meet" version="1.0"><defs><g/><clipPath id="5a08007f80"><path d="M 0.140625 0 L 168.363281 0 L 168.363281 238.503906 L 0.140625 238.503906 Z M 0.140625 0 " clip-rule="nonzero"/></clipPath><clipPath id="bd4258b333"><path d="M 0.140625 0 L 168.167969 0 L 168.167969 238.226562 L 0.140625 238.226562 Z M 0.140625 0 " clip-rule="nonzero"/></clipPath><clipPath id="adaf70af9a"><path d="M 51 37 L 110.535156 37 L 110.535156 63.445312 L 51 63.445312 Z M 51 37 " clip-rule="nonzero"/></clipPath><clipPath id="d100f147dd"><path d="M 1 0.367188 L 59.535156 0.367188 L 59.535156 26.445312 L 1 26.445312 Z M 1 0.367188 " clip-rule="nonzero"/></clipPath><clipPath id="8bbf589a77"><rect x="0" width="60" y="0" height="27"/></clipPath><clipPath id="d9fcba2e9a"><path d="M 87.421875 30.773438 L 103.453125 30.773438 L 103.453125 43.597656 L 87.421875 43.597656 Z M 87.421875 30.773438 " clip-rule="nonzero"/></clipPath><clipPath id="ae7208e43a"><path d="M 0.71875 0.285156 L 83 0.285156 L 83 55 L 0.71875 55 Z M 0.71875 0.285156 " clip-rule="nonzero"/></clipPath><clipPath id="53d926a11d"><rect x="0" width="83" y="0" height="55"/></clipPath><clipPath id="dce2d0974c"><rect x="0" width="111" y="0" height="64"/></clipPath><clipPath id="1896e16e82"><path d="M 89.890625 30.886719 L 162.328125 30.886719 L 162.328125 79.425781 L 89.890625 79.425781 Z M 89.890625 30.886719 " clip-rule="nonzero"/></clipPath><clipPath id="dc73a0afad"><path d="M 90 53 L 162.328125 53 L 162.328125 79.425781 L 90 79.425781 Z M 90 53 " clip-rule="nonzero"/></clipPath><clipPath id="2bff553a57"><path d="M 0.242188 0.414062 L 105.75 0.414062 L 105.75 24.578125 L 0.242188 24.578125 Z M 0.242188 0.414062 " clip-rule="nonzero"/></clipPath><clipPath id="d2d413928e"><rect x="0" width="106" y="0" height="25"/></clipPath><clipPath id="06389e7fa2"><path d="M 11.230469 30.886719 L 83.667969 30.886719 L 83.667969 79.425781 L 11.230469 79.425781 Z M 11.230469 30.886719 " clip-rule="nonzero"/></clipPath><clipPath id="2ca0ba8102"><path d="M 11.230469 53 L 83.667969 53 L 83.667969 79.425781 L 11.230469 79.425781 Z M 11.230469 53 " clip-rule="nonzero"/></clipPath><clipPath id="5da04fedeb"><path d="M 0.140625 213 L 48 213 L 48 238.503906 L 0.140625 238.503906 Z M 0.140625 213 " clip-rule="nonzero"/></clipPath><clipPath id="3af975df19"><path d="M 40.132812 271.226562 L -29.898438 252.714844 L -17.492188 205.785156 L 52.539062 224.296875 Z M 40.132812 271.226562 " clip-rule="nonzero"/></clipPath><clipPath id="f1fc666346"><path d="M 40.132812 271.226562 L -29.898438 252.714844 L -17.492188 205.785156 L 52.539062 224.296875 Z M 40.132812 271.226562 " clip-rule="nonzero"/></clipPath><clipPath id="3bddb97c99"><path d="M 126 209 L 168.363281 209 L 168.363281 238.503906 L 126 238.503906 Z M 126 209 " clip-rule="nonzero"/></clipPath><clipPath id="916994cf0e"><path d="M 201.644531 234.328125 L 144.417969 278.738281 L 114.65625 240.390625 L 171.882812 195.976562 Z M 201.644531 234.328125 " clip-rule="nonzero"/></clipPath><clipPath id="d863d57f8f"><path d="M 201.644531 234.328125 L 144.417969 278.738281 L 114.65625 240.390625 L 171.882812 195.976562 Z M 201.644531 234.328125 " clip-rule="nonzero"/></clipPath><clipPath id="de6ee7549c"><rect x="0" width="169" y="0" height="239"/></clipPath></defs><g clip-path="url(#5a08007f80)"><path fill="#ffffff" d="M 0.140625 0 L 168.363281 0 L 168.363281 238.503906 L 0.140625 238.503906 Z M 0.140625 0 " fill-opacity="1" fill-rule="nonzero"/><g transform="matrix(1, 0, 0, 1, -0.000000000000000028, 0)"><g clip-path="url(#de6ee7549c)"><g clip-path="url(#bd4258b333)"><path fill="#0097b2" d="M 0.140625 0 L 168.167969 0 L 168.167969 238.226562 L 0.140625 238.226562 Z M 0.140625 0 " fill-opacity="1" fill-rule="nonzero"/></g><g transform="matrix(1, 0, 0, 1, 31, 88)"><g clip-path="url(#dce2d0974c)"><g clip-path="url(#adaf70af9a)"><g transform="matrix(1, 0, 0, 1, 51, 37)"><g clip-path="url(#8bbf589a77)"><g clip-path="url(#d100f147dd)"><path fill="#ffffff" d="M 1.046875 5.636719 L 57.40625 0.507812 L 59.28125 21.089844 L 2.921875 26.222656 L 1.046875 5.636719 " fill-opacity="1" fill-rule="nonzero"/></g><g fill="#0097b2" fill-opacity="1"><g transform="translate(2.612338, 21.025344)"><g><path d="M 0.890625 -0.078125 L -0.046875 -10.328125 L 3.09375 -10.609375 L 4.453125 -9.5 L 4.875 -5.03125 L 3.734375 -3.65625 L 1.828125 -3.484375 L 2.125 -0.1875 Z M 1.71875 -4.59375 L 3.03125 -4.71875 L 3.578125 -5.34375 L 3.25 -8.9375 L 2.609375 -9.484375 L 1.296875 -9.359375 Z M 1.71875 -4.59375 "/></g></g></g><g fill="#0097b2" fill-opacity="1"><g transform="translate(8.357817, 20.502123)"><g><path d="M 3.203125 -10.625 L 5.65625 -1.03125 L 5.703125 -0.515625 L 4.546875 -0.40625 L 3.875 -3.15625 L 1.6875 -2.953125 L 1.515625 -0.140625 L 0.375 -0.03125 L 0.328125 -0.546875 L 1.0625 -10.4375 Z M 1.765625 -4.078125 L 3.59375 -4.25 L 2.34375 -9.296875 L 2.09375 -9.28125 Z M 1.765625 -4.078125 "/></g></g></g><g fill="#0097b2" fill-opacity="1"><g transform="translate(14.762856, 19.918839)"><g><path d="M 0.890625 -0.078125 L -0.046875 -10.328125 L 3.09375 -10.609375 L 4.453125 -9.5 L 4.828125 -5.46875 L 3.953125 -4.40625 L 5.453125 -1.015625 L 5.5 -0.5 L 4.390625 -0.40625 L 2.8125 -4.015625 L 1.78125 -3.921875 L 2.125 -0.1875 Z M 1.6875 -5.03125 L 3 -5.15625 L 3.53125 -5.796875 L 3.25 -8.9375 L 2.609375 -9.484375 L 1.296875 -9.359375 Z M 1.6875 -5.03125 "/></g></g></g><g fill="#0097b2" fill-opacity="1"><g transform="translate(21.241181, 19.328881)"><g><path d="M 0.890625 -0.078125 L -0.046875 -10.328125 L 3.90625 -10.6875 L 4.015625 -9.609375 L 1.296875 -9.359375 L 1.609375 -5.890625 L 3.59375 -6.078125 L 3.6875 -5 L 1.703125 -4.8125 L 2.03125 -1.296875 L 4.828125 -1.5625 L 4.921875 -0.453125 Z M 0.890625 -0.078125 "/></g></g></g><g fill="#0097b2" fill-opacity="1"><g transform="translate(26.766816, 18.825681)"><g><path d="M 0.125 -3.5625 L 0.015625 -4.734375 L 2.21875 -4.921875 L 2.328125 -3.75 Z M 0.125 -3.5625 "/></g></g></g><g fill="#0097b2" fill-opacity="1"><g transform="translate(30.167219, 18.516018)"><g><path d="M 0.890625 -0.078125 L -0.046875 -10.328125 L 3.234375 -10.625 L 4.53125 -9.578125 L 4.8125 -6.5625 L 4.171875 -5.8125 L 5.171875 -4.96875 L 5.453125 -1.828125 L 4.25 -0.390625 Z M 1.59375 -6.046875 L 3.0625 -6.1875 L 3.53125 -6.75 L 3.328125 -9.03125 L 2.765625 -9.5 L 1.296875 -9.359375 Z M 2.03125 -1.296875 L 3.578125 -1.4375 L 4.171875 -2.15625 L 3.953125 -4.5 L 3.234375 -5.09375 L 1.6875 -4.953125 Z M 2.03125 -1.296875 "/></g></g></g><g fill="#0097b2" fill-opacity="1"><g transform="translate(36.718827, 17.919387)"><g><path d="M 0.890625 -0.078125 L -0.046875 -10.328125 L 3.09375 -10.609375 L 4.453125 -9.5 L 4.828125 -5.46875 L 3.953125 -4.40625 L 5.453125 -1.015625 L 5.5 -0.5 L 4.390625 -0.40625 L 2.8125 -4.015625 L 1.78125 -3.921875 L 2.125 -0.1875 Z M 1.6875 -5.03125 L 3 -5.15625 L 3.53125 -5.796875 L 3.25 -8.9375 L 2.609375 -9.484375 L 1.296875 -9.359375 Z M 1.6875 -5.03125 "/></g></g></g><g fill="#0097b2" fill-opacity="1"><g transform="translate(43.050582, 17.342776)"><g><path d="M 0.515625 -0.046875 L 0.421875 -1.078125 L 1.375 -1.171875 L 0.625 -9.375 L -0.328125 -9.28125 L -0.421875 -10.296875 L 2.734375 -10.578125 L 2.828125 -9.5625 L 1.859375 -9.484375 L 2.609375 -1.28125 L 3.578125 -1.359375 L 3.671875 -0.328125 Z M 0.515625 -0.046875 "/></g></g></g><g fill="#0097b2" fill-opacity="1"><g transform="translate(47.550242, 16.933008)"><g><path d="M 0.65625 -0.0625 L 0.5625 -1.171875 L 3.125 -1.40625 L 3.59375 -1.96875 L 3.359375 -4.515625 L 2.796875 -4.984375 L 1.34375 -4.84375 L 0.0625 -5.90625 L -0.234375 -9.140625 L 0.828125 -10.40625 L 3.90625 -10.6875 L 4.015625 -9.609375 L 1.515625 -9.390625 L 1.0625 -8.828125 L 1.265625 -6.46875 L 1.8125 -6 L 3.28125 -6.125 L 4.5625 -5.078125 L 4.875 -1.625 L 3.8125 -0.34375 Z M 0.65625 -0.0625 "/></g></g></g><g fill="#0097b2" fill-opacity="1"><g transform="translate(53.442295, 16.39644)"><g><path d="M 0.890625 -0.078125 L -0.046875 -10.328125 L 3.90625 -10.6875 L 4.015625 -9.609375 L 1.296875 -9.359375 L 1.609375 -5.890625 L 3.59375 -6.078125 L 3.6875 -5 L 1.703125 -4.8125 L 2.03125 -1.296875 L 4.828125 -1.5625 L 4.921875 -0.453125 Z M 0.890625 -0.078125 "/></g></g></g></g></g></g><g clip-path="url(#d9fcba2e9a)"><path fill="#ffffff" d="M 87.632812 38.429688 C 87.632812 38.429688 87.464844 36.199219 87.910156 35.058594 C 88.355469 33.921875 88.863281 32.917969 89.492188 32.449219 C 90.121094 31.980469 90.875 31.644531 91.511719 31.941406 C 92.144531 32.234375 92.863281 32.738281 93.183594 33.386719 C 93.5 34.035156 93.878906 35.304688 93.878906 35.304688 L 94.082031 36.507812 C 94.082031 36.507812 94.480469 35.40625 94.8125 34.585938 C 95.148438 33.761719 96.246094 32.285156 97.054688 31.726562 C 97.863281 31.167969 99.320312 30.691406 100.085938 30.972656 C 100.855469 31.257812 101.21875 31.316406 101.722656 31.859375 C 102.742188 32.957031 103.121094 34.445312 103.253906 35.226562 C 103.386719 36.007812 103.335938 36.707031 103.117188 37.804688 C 102.894531 38.898438 102.355469 40.371094 101.664062 41.21875 C 100.96875 42.066406 99.714844 43.011719 98.792969 43.277344 C 97.871094 43.539062 96.929688 43.496094 96.332031 43.210938 C 95.734375 42.925781 95.230469 42.597656 94.90625 42.136719 C 94.578125 41.679688 93.941406 40.140625 93.941406 40.140625 C 93.941406 40.140625 93.6875 40.914062 93.269531 41.546875 C 92.851562 42.175781 92.269531 42.863281 91.828125 43.054688 C 91.386719 43.246094 90.238281 43.316406 89.800781 43.089844 C 89.363281 42.863281 88.746094 42.269531 88.410156 41.613281 C 88.074219 40.960938 87.855469 40.304688 87.792969 39.878906 C 87.726562 39.453125 87.632812 38.429688 87.632812 38.429688 Z M 87.632812 38.429688 " fill-opacity="1" fill-rule="nonzero"/><path fill="#000000" d="M 94.136719 36.101562 C 94.136719 36.105469 94.144531 36.105469 94.144531 36.101562 C 94.238281 35.726562 94.347656 35.367188 94.46875 35.027344 C 95.007812 33.539062 95.960938 32.148438 97.34375 31.347656 C 97.839844 31.058594 98.367188 30.878906 98.925781 30.804688 C 99.78125 30.6875 100.613281 30.898438 101.328125 31.394531 C 102.332031 32.085938 102.953125 33.21875 103.234375 34.382812 C 103.414062 35.121094 103.480469 35.871094 103.433594 36.628906 C 103.339844 38.136719 102.875 39.601562 102.066406 40.875 C 101.542969 41.695312 100.867188 42.398438 100.039062 42.910156 C 98.917969 43.601562 97.515625 43.820312 96.277344 43.328125 C 95.394531 42.976562 94.71875 42.265625 94.289062 41.421875 C 94.140625 41.128906 94.011719 40.816406 93.902344 40.484375 C 93.898438 40.476562 93.894531 40.476562 93.890625 40.484375 C 93.773438 40.804688 93.644531 41.109375 93.5 41.402344 C 93.273438 41.863281 92.988281 42.289062 92.605469 42.636719 C 92.09375 43.105469 91.433594 43.390625 90.738281 43.40625 C 89.9375 43.425781 89.238281 42.996094 88.753906 42.378906 C 88.378906 41.902344 88.109375 41.335938 87.917969 40.761719 C 87.542969 39.644531 87.394531 38.453125 87.433594 37.273438 C 87.457031 36.523438 87.570312 35.792969 87.765625 35.078125 C 87.847656 34.765625 87.960938 34.449219 88.097656 34.136719 C 88.339844 33.578125 88.664062 33.054688 89.085938 32.621094 C 89.679688 32.011719 90.484375 31.65625 91.332031 31.820312 C 92.46875 32.035156 93.242188 33.03125 93.636719 34.0625 C 93.890625 34.722656 94.054688 35.402344 94.136719 36.101562 Z M 94.085938 37.882812 C 93.953125 37.882812 93.917969 37.789062 93.914062 37.664062 C 93.910156 37.542969 93.925781 37.382812 93.921875 37.234375 C 93.917969 36.488281 93.828125 35.757812 93.648438 35.039062 C 93.511719 34.496094 93.3125 33.960938 93.035156 33.476562 C 92.648438 32.804688 91.996094 32.203125 91.203125 32.089844 C 90.222656 31.949219 89.417969 32.546875 88.890625 33.304688 C 88.539062 33.800781 88.285156 34.359375 88.105469 34.9375 C 87.851562 35.757812 87.726562 36.621094 87.714844 37.484375 C 87.703125 38.527344 87.839844 39.582031 88.15625 40.5625 C 88.273438 40.929688 88.414062 41.273438 88.582031 41.589844 C 89.015625 42.414062 89.726562 43.125 90.710938 43.117188 C 91.320312 43.113281 91.925781 42.859375 92.386719 42.449219 C 93.082031 41.824219 93.4375 40.902344 93.746094 40.046875 C 93.78125 39.953125 93.878906 39.898438 93.972656 39.953125 C 93.972656 39.953125 93.972656 39.953125 93.976562 39.957031 L 94.050781 40.03125 C 94.066406 40.046875 94.074219 40.066406 94.082031 40.085938 C 94.304688 40.875 94.648438 41.652344 95.21875 42.257812 C 95.65625 42.726562 96.175781 43.039062 96.777344 43.191406 C 97.378906 43.347656 98.023438 43.34375 98.628906 43.195312 C 99.757812 42.921875 100.761719 42.152344 101.460938 41.238281 C 102.566406 39.789062 103.144531 37.957031 103.160156 36.140625 C 103.164062 35.496094 103.070312 34.84375 102.882812 34.179688 C 102.710938 33.589844 102.453125 33.050781 102.105469 32.5625 C 101.773438 32.101562 101.367188 31.734375 100.890625 31.464844 C 100.476562 31.226562 100.027344 31.097656 99.546875 31.070312 C 98.855469 31.03125 98.117188 31.238281 97.519531 31.582031 C 96.351562 32.253906 95.484375 33.375 94.949219 34.601562 C 94.632812 35.339844 94.40625 36.109375 94.273438 36.910156 C 94.242188 37.097656 94.210938 37.332031 94.179688 37.621094 C 94.179688 37.625 94.179688 37.632812 94.175781 37.636719 L 94.097656 37.878906 C 94.097656 37.878906 94.089844 37.882812 94.085938 37.882812 Z M 94.085938 37.882812 " fill-opacity="1" fill-rule="nonzero"/></g><path fill="#000000" d="M 97.832031 35.613281 C 97.839844 35.636719 97.835938 35.675781 97.839844 35.695312 C 97.886719 35.898438 98.078125 35.925781 98.25 35.851562 C 98.503906 35.738281 98.679688 35.597656 98.785156 35.339844 C 98.84375 35.191406 98.824219 35.015625 98.667969 34.941406 C 98.664062 34.941406 98.664062 34.9375 98.667969 34.933594 C 99.035156 34.773438 99.417969 34.753906 99.777344 34.914062 C 100.5 35.242188 100.8125 36.132812 100.890625 36.855469 C 100.992188 37.828125 100.792969 38.859375 100.332031 39.726562 C 100 40.347656 99.414062 41.027344 98.671875 41.128906 C 97.941406 41.230469 97.394531 40.71875 97.121094 40.09375 C 96.917969 39.632812 96.835938 39.125 96.832031 38.617188 C 96.828125 38.03125 96.929688 37.441406 97.136719 36.855469 C 97.296875 36.398438 97.523438 35.984375 97.820312 35.613281 C 97.824219 35.605469 97.832031 35.609375 97.832031 35.613281 Z M 97.832031 35.613281 " fill-opacity="1" fill-rule="nonzero"/><path fill="#000000" d="M 89.992188 37.242188 C 90.039062 37.273438 90.078125 37.285156 90.113281 37.285156 C 90.320312 37.285156 90.480469 37.085938 90.566406 36.90625 C 90.613281 36.8125 90.640625 36.714844 90.621094 36.617188 C 90.613281 36.570312 90.617188 36.523438 90.605469 36.476562 C 90.589844 36.414062 90.558594 36.367188 90.503906 36.332031 C 90.5 36.328125 90.5 36.324219 90.503906 36.320312 C 90.773438 36.0625 91.136719 35.96875 91.492188 36.089844 C 92.003906 36.269531 92.335938 36.839844 92.488281 37.332031 C 92.710938 38.039062 92.710938 38.835938 92.441406 39.535156 C 92.21875 40.113281 91.695312 40.664062 91.015625 40.425781 C 90.679688 40.308594 90.414062 40.011719 90.238281 39.699219 C 90.136719 39.515625 90.058594 39.320312 89.996094 39.109375 C 89.828125 38.511719 89.804688 37.847656 89.980469 37.25 C 89.980469 37.242188 89.984375 37.242188 89.992188 37.242188 Z M 89.992188 37.242188 " fill-opacity="1" fill-rule="nonzero"/><path fill="#91b0b5" d="M 90.304688 39.125 C 90.453125 39.390625 90.609375 39.660156 90.847656 39.851562 C 91.085938 40.039062 91.425781 40.132812 91.699219 40 C 91.929688 39.886719 92.0625 39.644531 92.152344 39.40625 C 92.363281 38.820312 92.375 38.164062 92.183594 37.574219 C 92.214844 37.90625 92.171875 38.25 92.03125 38.554688 C 91.890625 38.859375 91.644531 39.121094 91.335938 39.246094 C 91.023438 39.375 90.652344 39.359375 90.304688 39.125 Z M 90.304688 39.125 " fill-opacity="1" fill-rule="nonzero"/><path fill="#91b0b5" d="M 97.285156 38.628906 C 97.34375 39.078125 97.410156 39.542969 97.652344 39.925781 C 97.894531 40.308594 98.367188 40.582031 98.800781 40.449219 C 99.074219 40.367188 99.28125 40.140625 99.445312 39.90625 C 99.863281 39.316406 100.113281 38.609375 100.160156 37.890625 C 100.015625 38.289062 99.816406 38.679688 99.511719 38.980469 C 99.210938 39.28125 98.792969 39.484375 98.367188 39.460938 C 97.941406 39.433594 97.523438 39.152344 97.285156 38.628906 Z M 97.285156 38.628906 " fill-opacity="1" fill-rule="nonzero"/><g clip-path="url(#ae7208e43a)"><g><g clip-path="url(#53d926a11d)"><g fill="#ffffff" fill-opacity="1"><g transform="translate(3.661809, 45.419082)"><g><path d="M 10.34375 0 L 5.671875 0 L 0.234375 -30.234375 L 5.171875 -30.234375 L 8.125 -9.078125 L 11.25 -30.234375 L 15.890625 -30.234375 Z M 10.34375 0 "/></g></g></g><g fill="#ffffff" fill-opacity="1"><g transform="translate(18.82307, 45.419082)"><g><path d="M 1.671875 0 L 1.671875 -30.234375 L 6.484375 -30.234375 L 6.484375 0 Z M 1.671875 0 "/></g></g></g><g fill="#ffffff" fill-opacity="1"><g transform="translate(26.131337, 45.419082)"><g><path d="M 15.0625 -6.90625 C 15.0625 -5.6875 14.878906 -4.613281 14.515625 -3.6875 C 14.160156 -2.769531 13.664062 -1.992188 13.03125 -1.359375 C 12.394531 -0.722656 11.644531 -0.25 10.78125 0.0625 C 9.914062 0.382812 8.984375 0.546875 7.984375 0.546875 C 5.804688 0.546875 4.082031 -0.0703125 2.8125 -1.3125 C 1.539062 -2.550781 0.90625 -4.25 0.90625 -6.40625 L 0.90625 -9.078125 L 5.3125 -9.078125 L 5.3125 -6.484375 C 5.3125 -5.515625 5.519531 -4.773438 5.9375 -4.265625 C 6.363281 -3.753906 7.003906 -3.5 7.859375 -3.5 C 8.734375 -3.5 9.375 -3.738281 9.78125 -4.21875 C 10.1875 -4.707031 10.390625 -5.375 10.390625 -6.21875 C 10.390625 -7.550781 10.0625 -8.753906 9.40625 -9.828125 C 8.757812 -10.898438 7.800781 -12.117188 6.53125 -13.484375 C 5.894531 -14.117188 5.257812 -14.804688 4.625 -15.546875 C 3.988281 -16.285156 3.414062 -17.070312 2.90625 -17.90625 C 2.394531 -18.738281 1.972656 -19.613281 1.640625 -20.53125 C 1.304688 -21.457031 1.140625 -22.40625 1.140625 -23.375 C 1.140625 -24.40625 1.28125 -25.363281 1.5625 -26.25 C 1.851562 -27.144531 2.289062 -27.925781 2.875 -28.59375 C 3.46875 -29.257812 4.203125 -29.789062 5.078125 -30.1875 C 5.960938 -30.582031 6.992188 -30.78125 8.171875 -30.78125 C 10.203125 -30.78125 11.820312 -30.144531 13.03125 -28.875 C 14.238281 -27.601562 14.84375 -25.921875 14.84375 -23.828125 L 14.84375 -21.109375 L 10.484375 -21.109375 L 10.484375 -23.828125 C 10.484375 -24.671875 10.289062 -25.347656 9.90625 -25.859375 C 9.53125 -26.378906 8.953125 -26.640625 8.171875 -26.640625 C 7.472656 -26.640625 6.90625 -26.425781 6.46875 -26 C 6.03125 -25.582031 5.8125 -24.976562 5.8125 -24.1875 C 5.8125 -23.46875 5.894531 -22.8125 6.0625 -22.21875 C 6.226562 -21.625 6.476562 -21.054688 6.8125 -20.515625 C 7.144531 -19.972656 7.570312 -19.40625 8.09375 -18.8125 C 8.625 -18.21875 9.238281 -17.546875 9.9375 -16.796875 C 11.425781 -15.253906 12.648438 -13.695312 13.609375 -12.125 C 14.578125 -10.550781 15.0625 -8.8125 15.0625 -6.90625 Z M 15.0625 -6.90625 "/></g></g></g><g fill="#ffffff" fill-opacity="1"><g transform="translate(41.247205, 45.419082)"><g><path d="M 1.671875 0 L 1.671875 -30.234375 L 6.484375 -30.234375 L 6.484375 0 Z M 1.671875 0 "/></g></g></g><g fill="#ffffff" fill-opacity="1"><g transform="translate(48.555474, 45.419082)"><g><path d="M 15.84375 -6.625 C 15.84375 -5.5625 15.664062 -4.59375 15.3125 -3.71875 C 14.96875 -2.84375 14.484375 -2.085938 13.859375 -1.453125 C 13.242188 -0.816406 12.488281 -0.328125 11.59375 0.015625 C 10.707031 0.367188 9.71875 0.546875 8.625 0.546875 C 7.53125 0.546875 6.535156 0.367188 5.640625 0.015625 C 4.753906 -0.328125 4 -0.816406 3.375 -1.453125 C 2.757812 -2.085938 2.273438 -2.84375 1.921875 -3.71875 C 1.578125 -4.59375 1.40625 -5.5625 1.40625 -6.625 L 1.40625 -23.609375 C 1.40625 -24.628906 1.578125 -25.578125 1.921875 -26.453125 C 2.273438 -27.335938 2.757812 -28.097656 3.375 -28.734375 C 4 -29.367188 4.753906 -29.867188 5.640625 -30.234375 C 6.535156 -30.597656 7.53125 -30.78125 8.625 -30.78125 C 9.71875 -30.78125 10.707031 -30.597656 11.59375 -30.234375 C 12.488281 -29.867188 13.242188 -29.367188 13.859375 -28.734375 C 14.484375 -28.097656 14.96875 -27.335938 15.3125 -26.453125 C 15.664062 -25.578125 15.84375 -24.628906 15.84375 -23.609375 Z M 10.984375 -23.96875 C 10.984375 -24.695312 10.78125 -25.285156 10.375 -25.734375 C 9.96875 -26.191406 9.382812 -26.421875 8.625 -26.421875 C 7.863281 -26.421875 7.28125 -26.191406 6.875 -25.734375 C 6.46875 -25.285156 6.265625 -24.695312 6.265625 -23.96875 L 6.265625 -6.265625 C 6.265625 -5.535156 6.46875 -4.941406 6.875 -4.484375 C 7.28125 -4.035156 7.863281 -3.8125 8.625 -3.8125 C 9.382812 -3.8125 9.96875 -4.035156 10.375 -4.484375 C 10.78125 -4.941406 10.984375 -5.535156 10.984375 -6.265625 Z M 10.984375 -23.96875 "/></g></g></g><g fill="#ffffff" fill-opacity="1"><g transform="translate(64.896957, 45.419082)"><g><path d="M 12.75 0 L 7.671875 -13.703125 L 5.984375 -18.34375 L 5.984375 0 L 1.640625 0 L 1.640625 -30.234375 L 5.90625 -30.234375 L 10.625 -16.390625 L 12.171875 -11.703125 L 12.171875 -30.234375 L 16.484375 -30.234375 L 16.484375 0 Z M 12.75 0 "/></g></g></g><g fill="#000000" fill-opacity="1"><g transform="translate(1.035371, 43.840958)"><g><path d="M 10.34375 0 L 5.671875 0 L 0.234375 -30.234375 L 5.171875 -30.234375 L 8.125 -9.078125 L 11.25 -30.234375 L 15.890625 -30.234375 Z M 10.34375 0 "/></g></g></g><g fill="#000000" fill-opacity="1"><g transform="translate(16.196632, 43.840958)"><g><path d="M 1.671875 0 L 1.671875 -30.234375 L 6.484375 -30.234375 L 6.484375 0 Z M 1.671875 0 "/></g></g></g><g fill="#000000" fill-opacity="1"><g transform="translate(23.504899, 43.840958)"><g><path d="M 15.0625 -6.90625 C 15.0625 -5.6875 14.878906 -4.613281 14.515625 -3.6875 C 14.160156 -2.769531 13.664062 -1.992188 13.03125 -1.359375 C 12.394531 -0.722656 11.644531 -0.25 10.78125 0.0625 C 9.914062 0.382812 8.984375 0.546875 7.984375 0.546875 C 5.804688 0.546875 4.082031 -0.0703125 2.8125 -1.3125 C 1.539062 -2.550781 0.90625 -4.25 0.90625 -6.40625 L 0.90625 -9.078125 L 5.3125 -9.078125 L 5.3125 -6.484375 C 5.3125 -5.515625 5.519531 -4.773438 5.9375 -4.265625 C 6.363281 -3.753906 7.003906 -3.5 7.859375 -3.5 C 8.734375 -3.5 9.375 -3.738281 9.78125 -4.21875 C 10.1875 -4.707031 10.390625 -5.375 10.390625 -6.21875 C 10.390625 -7.550781 10.0625 -8.753906 9.40625 -9.828125 C 8.757812 -10.898438 7.800781 -12.117188 6.53125 -13.484375 C 5.894531 -14.117188 5.257812 -14.804688 4.625 -15.546875 C 3.988281 -16.285156 3.414062 -17.070312 2.90625 -17.90625 C 2.394531 -18.738281 1.972656 -19.613281 1.640625 -20.53125 C 1.304688 -21.457031 1.140625 -22.40625 1.140625 -23.375 C 1.140625 -24.40625 1.28125 -25.363281 1.5625 -26.25 C 1.851562 -27.144531 2.289062 -27.925781 2.875 -28.59375 C 3.46875 -29.257812 4.203125 -29.789062 5.078125 -30.1875 C 5.960938 -30.582031 6.992188 -30.78125 8.171875 -30.78125 C 10.203125 -30.78125 11.820312 -30.144531 13.03125 -28.875 C 14.238281 -27.601562 14.84375 -25.921875 14.84375 -23.828125 L 14.84375 -21.109375 L 10.484375 -21.109375 L 10.484375 -23.828125 C 10.484375 -24.671875 10.289062 -25.347656 9.90625 -25.859375 C 9.53125 -26.378906 8.953125 -26.640625 8.171875 -26.640625 C 7.472656 -26.640625 6.90625 -26.425781 6.46875 -26 C 6.03125 -25.582031 5.8125 -24.976562 5.8125 -24.1875 C 5.8125 -23.46875 5.894531 -22.8125 6.0625 -22.21875 C 6.226562 -21.625 6.476562 -21.054688 6.8125 -20.515625 C 7.144531 -19.972656 7.570312 -19.40625 8.09375 -18.8125 C 8.625 -18.21875 9.238281 -17.546875 9.9375 -16.796875 C 11.425781 -15.253906 12.648438 -13.695312 13.609375 -12.125 C 14.578125 -10.550781 15.0625 -8.8125 15.0625 -6.90625 Z M 15.0625 -6.90625 "/></g></g></g><g fill="#000000" fill-opacity="1"><g transform="translate(38.620767, 43.840958)"><g><path d="M 1.671875 0 L 1.671875 -30.234375 L 6.484375 -30.234375 L 6.484375 0 Z M 1.671875 0 "/></g></g></g><g fill="#000000" fill-opacity="1"><g transform="translate(45.929036, 43.840958)"><g><path d="M 15.84375 -6.625 C 15.84375 -5.5625 15.664062 -4.59375 15.3125 -3.71875 C 14.96875 -2.84375 14.484375 -2.085938 13.859375 -1.453125 C 13.242188 -0.816406 12.488281 -0.328125 11.59375 0.015625 C 10.707031 0.367188 9.71875 0.546875 8.625 0.546875 C 7.53125 0.546875 6.535156 0.367188 5.640625 0.015625 C 4.753906 -0.328125 4 -0.816406 3.375 -1.453125 C 2.757812 -2.085938 2.273438 -2.84375 1.921875 -3.71875 C 1.578125 -4.59375 1.40625 -5.5625 1.40625 -6.625 L 1.40625 -23.609375 C 1.40625 -24.628906 1.578125 -25.578125 1.921875 -26.453125 C 2.273438 -27.335938 2.757812 -28.097656 3.375 -28.734375 C 4 -29.367188 4.753906 -29.867188 5.640625 -30.234375 C 6.535156 -30.597656 7.53125 -30.78125 8.625 -30.78125 C 9.71875 -30.78125 10.707031 -30.597656 11.59375 -30.234375 C 12.488281 -29.867188 13.242188 -29.367188 13.859375 -28.734375 C 14.484375 -28.097656 14.96875 -27.335938 15.3125 -26.453125 C 15.664062 -25.578125 15.84375 -24.628906 15.84375 -23.609375 Z M 10.984375 -23.96875 C 10.984375 -24.695312 10.78125 -25.285156 10.375 -25.734375 C 9.96875 -26.191406 9.382812 -26.421875 8.625 -26.421875 C 7.863281 -26.421875 7.28125 -26.191406 6.875 -25.734375 C 6.46875 -25.285156 6.265625 -24.695312 6.265625 -23.96875 L 6.265625 -6.265625 C 6.265625 -5.535156 6.46875 -4.941406 6.875 -4.484375 C 7.28125 -4.035156 7.863281 -3.8125 8.625 -3.8125 C 9.382812 -3.8125 9.96875 -4.035156 10.375 -4.484375 C 10.78125 -4.941406 10.984375 -5.535156 10.984375 -6.265625 Z M 10.984375 -23.96875 "/></g></g></g><g fill="#000000" fill-opacity="1"><g transform="translate(62.270519, 43.840958)"><g><path d="M 12.75 0 L 7.671875 -13.703125 L 5.984375 -18.34375 L 5.984375 0 L 1.640625 0 L 1.640625 -30.234375 L 5.90625 -30.234375 L 10.625 -16.390625 L 12.171875 -11.703125 L 12.171875 -30.234375 L 16.484375 -30.234375 L 16.484375 0 Z M 12.75 0 "/></g></g></g></g></g></g></g></g><g clip-path="url(#1896e16e82)"><path fill="#fefefe" d="M 151.941406 46.597656 C 151.925781 46.597656 151.910156 46.597656 151.898438 46.597656 C 151.410156 41.289062 146.945312 37.128906 141.507812 37.128906 C 139.730469 37.128906 138.058594 37.574219 136.59375 38.359375 C 135.316406 34.039062 131.324219 30.886719 126.589844 30.886719 C 121.699219 30.886719 117.59375 34.253906 116.464844 38.796875 C 114.835938 37.742188 112.894531 37.128906 110.8125 37.128906 C 105.375 37.128906 100.914062 41.289062 100.425781 46.597656 C 100.410156 46.597656 100.394531 46.597656 100.378906 46.597656 C 94.617188 46.597656 89.945312 51.269531 89.945312 57.03125 C 89.945312 62.792969 94.617188 67.464844 100.378906 67.464844 C 100.421875 67.464844 100.464844 67.460938 100.511719 67.460938 C 101.300781 72.4375 105.613281 76.246094 110.8125 76.246094 C 113.359375 76.246094 115.691406 75.332031 117.503906 73.816406 C 119.292969 76.984375 122.691406 79.125 126.589844 79.125 C 130.300781 79.125 133.554688 77.1875 135.402344 74.269531 C 137.121094 75.511719 139.230469 76.246094 141.507812 76.246094 C 146.710938 76.246094 151.019531 72.4375 151.8125 67.460938 C 151.855469 67.460938 151.898438 67.464844 151.941406 67.464844 C 157.703125 67.464844 162.375 62.792969 162.375 57.03125 C 162.375 51.269531 157.703125 46.597656 151.941406 46.597656 " fill-opacity="1" fill-rule="nonzero"/></g><g clip-path="url(#dc73a0afad)"><path fill="#88c7ee" d="M 135.402344 74.269531 C 137.121094 75.511719 139.230469 76.246094 141.507812 76.246094 C 146.710938 76.246094 151.019531 72.4375 151.8125 67.460938 C 151.855469 67.460938 151.898438 67.464844 151.941406 67.464844 C 157.703125 67.464844 162.375 62.792969 162.375 57.03125 C 162.375 55.707031 162.125 54.4375 161.675781 53.273438 C 161.523438 55.035156 161 56.765625 160.109375 58.296875 C 158.074219 61.792969 154.191406 64.136719 150.152344 64.3125 C 149.714844 67.050781 147.730469 69.492188 145.140625 70.484375 C 142.550781 71.472656 139.445312 70.980469 137.289062 69.234375 C 135.453125 72.175781 132.140625 74.140625 128.675781 74.339844 C 125.214844 74.539062 121.699219 72.96875 119.535156 70.257812 C 116.792969 72.511719 112.839844 73.183594 109.503906 71.972656 C 106.167969 70.757812 103.574219 67.695312 102.925781 64.207031 C 98.359375 64.613281 94.0625 63.101562 90.496094 60.367188 C 91.886719 64.492188 95.785156 67.464844 100.378906 67.464844 C 100.421875 67.464844 100.464844 67.460938 100.511719 67.460938 C 101.300781 72.4375 105.613281 76.246094 110.8125 76.246094 C 113.359375 76.246094 115.691406 75.332031 117.503906 73.816406 C 119.292969 76.984375 122.691406 79.125 126.589844 79.125 C 130.300781 79.125 133.554688 77.1875 135.402344 74.269531 " fill-opacity="1" fill-rule="nonzero"/></g><g transform="matrix(1, 0, 0, 1, 31, 174)"><g clip-path="url(#d2d413928e)"><g clip-path="url(#2bff553a57)"><path fill="#ffffff" d="M 12.316406 0.625 L 93.617188 0.625 C 100.117188 0.625 105.390625 5.894531 105.390625 12.398438 C 105.390625 18.902344 100.117188 24.171875 93.617188 24.171875 L 12.316406 24.171875 C 5.8125 24.171875 0.542969 18.902344 0.542969 12.398438 C 0.542969 5.894531 5.8125 0.625 12.316406 0.625 Z M 12.316406 0.625 " fill-opacity="1" fill-rule="nonzero"/></g><g fill="#000000" fill-opacity="1"><g transform="translate(4.816957, 17.85404)"><g><path d="M 7.53125 -5.015625 C 7.53125 -3.265625 7.238281 -1.96875 6.65625 -1.125 C 6.082031 -0.28125 5.203125 0.140625 4.015625 0.140625 C 2.847656 0.140625 1.972656 -0.289062 1.390625 -1.15625 C 0.804688 -2.03125 0.515625 -3.316406 0.515625 -5.015625 C 0.515625 -6.785156 0.796875 -8.09375 1.359375 -8.9375 C 1.929688 -9.78125 2.816406 -10.203125 4.015625 -10.203125 C 5.171875 -10.203125 6.046875 -9.757812 6.640625 -8.875 C 7.234375 -8 7.53125 -6.710938 7.53125 -5.015625 Z M 2.609375 -5.015625 C 2.609375 -3.785156 2.710938 -2.90625 2.921875 -2.375 C 3.140625 -1.84375 3.503906 -1.578125 4.015625 -1.578125 C 4.503906 -1.578125 4.859375 -1.84375 5.078125 -2.375 C 5.296875 -2.914062 5.40625 -3.796875 5.40625 -5.015625 C 5.40625 -6.242188 5.296875 -7.128906 5.078125 -7.671875 C 4.859375 -8.210938 4.503906 -8.484375 4.015625 -8.484375 C 3.515625 -8.484375 3.15625 -8.210938 2.9375 -7.671875 C 2.71875 -7.128906 2.609375 -6.242188 2.609375 -5.015625 Z M 2.609375 -5.015625 "/></g></g></g><g fill="#000000" fill-opacity="1"><g transform="translate(12.842962, 17.85404)"><g><path d="M 7.578125 0 L 0.5625 0 L 0.5625 -1.46875 L 3.078125 -4.03125 C 3.828125 -4.789062 4.316406 -5.316406 4.546875 -5.609375 C 4.773438 -5.910156 4.9375 -6.1875 5.03125 -6.4375 C 5.132812 -6.6875 5.1875 -6.945312 5.1875 -7.21875 C 5.1875 -7.625 5.078125 -7.921875 4.859375 -8.109375 C 4.640625 -8.304688 4.34375 -8.40625 3.96875 -8.40625 C 3.582031 -8.40625 3.203125 -8.316406 2.828125 -8.140625 C 2.460938 -7.960938 2.082031 -7.707031 1.6875 -7.375 L 0.53125 -8.75 C 1.03125 -9.164062 1.441406 -9.460938 1.765625 -9.640625 C 2.085938 -9.816406 2.441406 -9.953125 2.828125 -10.046875 C 3.210938 -10.140625 3.644531 -10.1875 4.125 -10.1875 C 4.75 -10.1875 5.300781 -10.070312 5.78125 -9.84375 C 6.257812 -9.613281 6.628906 -9.289062 6.890625 -8.875 C 7.160156 -8.46875 7.296875 -8 7.296875 -7.46875 C 7.296875 -7 7.210938 -6.5625 7.046875 -6.15625 C 6.890625 -5.757812 6.640625 -5.347656 6.296875 -4.921875 C 5.953125 -4.492188 5.351562 -3.882812 4.5 -3.09375 L 3.203125 -1.875 L 3.203125 -1.78125 L 7.578125 -1.78125 Z M 7.578125 0 "/></g></g></g><g fill="#000000" fill-opacity="1"><g transform="translate(20.868967, 17.85404)"><g><path d="M 0.796875 -0.984375 C 0.796875 -1.367188 0.898438 -1.660156 1.109375 -1.859375 C 1.316406 -2.054688 1.617188 -2.15625 2.015625 -2.15625 C 2.390625 -2.15625 2.679688 -2.050781 2.890625 -1.84375 C 3.097656 -1.644531 3.203125 -1.359375 3.203125 -0.984375 C 3.203125 -0.617188 3.097656 -0.332031 2.890625 -0.125 C 2.679688 0.0820312 2.390625 0.1875 2.015625 0.1875 C 1.628906 0.1875 1.328125 0.0859375 1.109375 -0.109375 C 0.898438 -0.316406 0.796875 -0.609375 0.796875 -0.984375 Z M 0.796875 -0.984375 "/></g></g></g><g fill="#000000" fill-opacity="1"><g transform="translate(24.878536, 17.85404)"><g><path d="M 4.21875 -6.40625 C 5.1875 -6.40625 5.957031 -6.132812 6.53125 -5.59375 C 7.101562 -5.050781 7.390625 -4.304688 7.390625 -3.359375 C 7.390625 -2.234375 7.046875 -1.367188 6.359375 -0.765625 C 5.671875 -0.160156 4.679688 0.140625 3.390625 0.140625 C 2.273438 0.140625 1.375 -0.0390625 0.6875 -0.40625 L 0.6875 -2.234375 C 1.050781 -2.046875 1.472656 -1.890625 1.953125 -1.765625 C 2.429688 -1.648438 2.882812 -1.59375 3.3125 -1.59375 C 4.613281 -1.59375 5.265625 -2.117188 5.265625 -3.171875 C 5.265625 -4.191406 4.59375 -4.703125 3.25 -4.703125 C 3.007812 -4.703125 2.738281 -4.675781 2.4375 -4.625 C 2.144531 -4.570312 1.910156 -4.519531 1.734375 -4.46875 L 0.890625 -4.921875 L 1.265625 -10.03125 L 6.703125 -10.03125 L 6.703125 -8.234375 L 3.125 -8.234375 L 2.9375 -6.265625 L 3.171875 -6.3125 C 3.453125 -6.375 3.800781 -6.40625 4.21875 -6.40625 Z M 4.21875 -6.40625 "/></g></g></g><g fill="#000000" fill-opacity="1"><g transform="translate(32.904541, 17.85404)"><g><path d="M 4.21875 -6.40625 C 5.1875 -6.40625 5.957031 -6.132812 6.53125 -5.59375 C 7.101562 -5.050781 7.390625 -4.304688 7.390625 -3.359375 C 7.390625 -2.234375 7.046875 -1.367188 6.359375 -0.765625 C 5.671875 -0.160156 4.679688 0.140625 3.390625 0.140625 C 2.273438 0.140625 1.375 -0.0390625 0.6875 -0.40625 L 0.6875 -2.234375 C 1.050781 -2.046875 1.472656 -1.890625 1.953125 -1.765625 C 2.429688 -1.648438 2.882812 -1.59375 3.3125 -1.59375 C 4.613281 -1.59375 5.265625 -2.117188 5.265625 -3.171875 C 5.265625 -4.191406 4.59375 -4.703125 3.25 -4.703125 C 3.007812 -4.703125 2.738281 -4.675781 2.4375 -4.625 C 2.144531 -4.570312 1.910156 -4.519531 1.734375 -4.46875 L 0.890625 -4.921875 L 1.265625 -10.03125 L 6.703125 -10.03125 L 6.703125 -8.234375 L 3.125 -8.234375 L 2.9375 -6.265625 L 3.171875 -6.3125 C 3.453125 -6.375 3.800781 -6.40625 4.21875 -6.40625 Z M 4.21875 -6.40625 "/></g></g></g><g fill="#000000" fill-opacity="1"><g transform="translate(40.930547, 17.85404)"><g><path d="M 0.796875 -0.984375 C 0.796875 -1.367188 0.898438 -1.660156 1.109375 -1.859375 C 1.316406 -2.054688 1.617188 -2.15625 2.015625 -2.15625 C 2.390625 -2.15625 2.679688 -2.050781 2.890625 -1.84375 C 3.097656 -1.644531 3.203125 -1.359375 3.203125 -0.984375 C 3.203125 -0.617188 3.097656 -0.332031 2.890625 -0.125 C 2.679688 0.0820312 2.390625 0.1875 2.015625 0.1875 C 1.628906 0.1875 1.328125 0.0859375 1.109375 -0.109375 C 0.898438 -0.316406 0.796875 -0.609375 0.796875 -0.984375 Z M 0.796875 -0.984375 "/></g></g></g><g fill="#000000" fill-opacity="1"><g transform="translate(44.940116, 17.85404)"><g><path d="M 7.546875 -5.75 C 7.546875 -3.769531 7.128906 -2.289062 6.296875 -1.3125 C 5.460938 -0.34375 4.195312 0.140625 2.5 0.140625 C 1.90625 0.140625 1.457031 0.109375 1.15625 0.046875 L 1.15625 -1.65625 C 1.539062 -1.5625 1.941406 -1.515625 2.359375 -1.515625 C 3.066406 -1.515625 3.648438 -1.617188 4.109375 -1.828125 C 4.566406 -2.035156 4.914062 -2.363281 5.15625 -2.8125 C 5.40625 -3.257812 5.546875 -3.875 5.578125 -4.65625 L 5.5 -4.65625 C 5.238281 -4.226562 4.929688 -3.925781 4.578125 -3.75 C 4.234375 -3.570312 3.800781 -3.484375 3.28125 -3.484375 C 2.40625 -3.484375 1.710938 -3.765625 1.203125 -4.328125 C 0.703125 -4.890625 0.453125 -5.671875 0.453125 -6.671875 C 0.453125 -7.742188 0.753906 -8.59375 1.359375 -9.21875 C 1.972656 -9.84375 2.804688 -10.15625 3.859375 -10.15625 C 4.609375 -10.15625 5.257812 -9.976562 5.8125 -9.625 C 6.363281 -9.28125 6.789062 -8.773438 7.09375 -8.109375 C 7.394531 -7.453125 7.546875 -6.664062 7.546875 -5.75 Z M 3.90625 -8.453125 C 3.46875 -8.453125 3.125 -8.300781 2.875 -8 C 2.625 -7.695312 2.5 -7.257812 2.5 -6.6875 C 2.5 -6.207031 2.609375 -5.820312 2.828125 -5.53125 C 3.054688 -5.25 3.398438 -5.109375 3.859375 -5.109375 C 4.296875 -5.109375 4.664062 -5.25 4.96875 -5.53125 C 5.28125 -5.8125 5.4375 -6.140625 5.4375 -6.515625 C 5.4375 -7.054688 5.289062 -7.515625 5 -7.890625 C 4.71875 -8.265625 4.351562 -8.453125 3.90625 -8.453125 Z M 3.90625 -8.453125 "/></g></g></g><g fill="#000000" fill-opacity="1"><g transform="translate(52.966123, 17.85404)"><g><path d="M 7.546875 -5.75 C 7.546875 -3.769531 7.128906 -2.289062 6.296875 -1.3125 C 5.460938 -0.34375 4.195312 0.140625 2.5 0.140625 C 1.90625 0.140625 1.457031 0.109375 1.15625 0.046875 L 1.15625 -1.65625 C 1.539062 -1.5625 1.941406 -1.515625 2.359375 -1.515625 C 3.066406 -1.515625 3.648438 -1.617188 4.109375 -1.828125 C 4.566406 -2.035156 4.914062 -2.363281 5.15625 -2.8125 C 5.40625 -3.257812 5.546875 -3.875 5.578125 -4.65625 L 5.5 -4.65625 C 5.238281 -4.226562 4.929688 -3.925781 4.578125 -3.75 C 4.234375 -3.570312 3.800781 -3.484375 3.28125 -3.484375 C 2.40625 -3.484375 1.710938 -3.765625 1.203125 -4.328125 C 0.703125 -4.890625 0.453125 -5.671875 0.453125 -6.671875 C 0.453125 -7.742188 0.753906 -8.59375 1.359375 -9.21875 C 1.972656 -9.84375 2.804688 -10.15625 3.859375 -10.15625 C 4.609375 -10.15625 5.257812 -9.976562 5.8125 -9.625 C 6.363281 -9.28125 6.789062 -8.773438 7.09375 -8.109375 C 7.394531 -7.453125 7.546875 -6.664062 7.546875 -5.75 Z M 3.90625 -8.453125 C 3.46875 -8.453125 3.125 -8.300781 2.875 -8 C 2.625 -7.695312 2.5 -7.257812 2.5 -6.6875 C 2.5 -6.207031 2.609375 -5.820312 2.828125 -5.53125 C 3.054688 -5.25 3.398438 -5.109375 3.859375 -5.109375 C 4.296875 -5.109375 4.664062 -5.25 4.96875 -5.53125 C 5.28125 -5.8125 5.4375 -6.140625 5.4375 -6.515625 C 5.4375 -7.054688 5.289062 -7.515625 5 -7.890625 C 4.71875 -8.265625 4.351562 -8.453125 3.90625 -8.453125 Z M 3.90625 -8.453125 "/></g></g></g><g fill="#000000" fill-opacity="1"><g transform="translate(60.992126, 17.85404)"><g><path d="M 0.796875 -0.984375 C 0.796875 -1.367188 0.898438 -1.660156 1.109375 -1.859375 C 1.316406 -2.054688 1.617188 -2.15625 2.015625 -2.15625 C 2.390625 -2.15625 2.679688 -2.050781 2.890625 -1.84375 C 3.097656 -1.644531 3.203125 -1.359375 3.203125 -0.984375 C 3.203125 -0.617188 3.097656 -0.332031 2.890625 -0.125 C 2.679688 0.0820312 2.390625 0.1875 2.015625 0.1875 C 1.628906 0.1875 1.328125 0.0859375 1.109375 -0.109375 C 0.898438 -0.316406 0.796875 -0.609375 0.796875 -0.984375 Z M 0.796875 -0.984375 "/></g></g></g><g fill="#000000" fill-opacity="1"><g transform="translate(65.001695, 17.85404)"><g><path d="M 0.5 -4.265625 C 0.5 -6.253906 0.914062 -7.734375 1.75 -8.703125 C 2.59375 -9.671875 3.851562 -10.15625 5.53125 -10.15625 C 6.101562 -10.15625 6.550781 -10.117188 6.875 -10.046875 L 6.875 -8.359375 C 6.46875 -8.453125 6.066406 -8.5 5.671875 -8.5 C 4.941406 -8.5 4.34375 -8.382812 3.875 -8.15625 C 3.414062 -7.9375 3.070312 -7.613281 2.84375 -7.1875 C 2.613281 -6.757812 2.476562 -6.148438 2.4375 -5.359375 L 2.53125 -5.359375 C 2.988281 -6.128906 3.710938 -6.515625 4.703125 -6.515625 C 5.609375 -6.515625 6.3125 -6.234375 6.8125 -5.671875 C 7.320312 -5.109375 7.578125 -4.332031 7.578125 -3.34375 C 7.578125 -2.269531 7.273438 -1.421875 6.671875 -0.796875 C 6.066406 -0.171875 5.226562 0.140625 4.15625 0.140625 C 3.414062 0.140625 2.769531 -0.03125 2.21875 -0.375 C 1.664062 -0.71875 1.238281 -1.21875 0.9375 -1.875 C 0.644531 -2.539062 0.5 -3.335938 0.5 -4.265625 Z M 4.125 -1.5625 C 4.570312 -1.5625 4.914062 -1.710938 5.15625 -2.015625 C 5.40625 -2.316406 5.53125 -2.75 5.53125 -3.3125 C 5.53125 -3.800781 5.414062 -4.1875 5.1875 -4.46875 C 4.957031 -4.75 4.613281 -4.890625 4.15625 -4.890625 C 3.726562 -4.890625 3.363281 -4.75 3.0625 -4.46875 C 2.757812 -4.195312 2.609375 -3.875 2.609375 -3.5 C 2.609375 -2.957031 2.75 -2.5 3.03125 -2.125 C 3.3125 -1.75 3.675781 -1.5625 4.125 -1.5625 Z M 4.125 -1.5625 "/></g></g></g><g fill="#000000" fill-opacity="1"><g transform="translate(73.027697, 17.85404)"><g><path d="M 7.578125 0 L 0.5625 0 L 0.5625 -1.46875 L 3.078125 -4.03125 C 3.828125 -4.789062 4.316406 -5.316406 4.546875 -5.609375 C 4.773438 -5.910156 4.9375 -6.1875 5.03125 -6.4375 C 5.132812 -6.6875 5.1875 -6.945312 5.1875 -7.21875 C 5.1875 -7.625 5.078125 -7.921875 4.859375 -8.109375 C 4.640625 -8.304688 4.34375 -8.40625 3.96875 -8.40625 C 3.582031 -8.40625 3.203125 -8.316406 2.828125 -8.140625 C 2.460938 -7.960938 2.082031 -7.707031 1.6875 -7.375 L 0.53125 -8.75 C 1.03125 -9.164062 1.441406 -9.460938 1.765625 -9.640625 C 2.085938 -9.816406 2.441406 -9.953125 2.828125 -10.046875 C 3.210938 -10.140625 3.644531 -10.1875 4.125 -10.1875 C 4.75 -10.1875 5.300781 -10.070312 5.78125 -9.84375 C 6.257812 -9.613281 6.628906 -9.289062 6.890625 -8.875 C 7.160156 -8.46875 7.296875 -8 7.296875 -7.46875 C 7.296875 -7 7.210938 -6.5625 7.046875 -6.15625 C 6.890625 -5.757812 6.640625 -5.347656 6.296875 -4.921875 C 5.953125 -4.492188 5.351562 -3.882812 4.5 -3.09375 L 3.203125 -1.875 L 3.203125 -1.78125 L 7.578125 -1.78125 Z M 7.578125 0 "/></g></g></g><g fill="#000000" fill-opacity="1"><g transform="translate(81.053705, 17.85404)"><g><path d="M 0.796875 -0.984375 C 0.796875 -1.367188 0.898438 -1.660156 1.109375 -1.859375 C 1.316406 -2.054688 1.617188 -2.15625 2.015625 -2.15625 C 2.390625 -2.15625 2.679688 -2.050781 2.890625 -1.84375 C 3.097656 -1.644531 3.203125 -1.359375 3.203125 -0.984375 C 3.203125 -0.617188 3.097656 -0.332031 2.890625 -0.125 C 2.679688 0.0820312 2.390625 0.1875 2.015625 0.1875 C 1.628906 0.1875 1.328125 0.0859375 1.109375 -0.109375 C 0.898438 -0.316406 0.796875 -0.609375 0.796875 -0.984375 Z M 0.796875 -0.984375 "/></g></g></g><g fill="#000000" fill-opacity="1"><g transform="translate(85.063274, 17.85404)"><g><path d="M 7.578125 0 L 0.5625 0 L 0.5625 -1.46875 L 3.078125 -4.03125 C 3.828125 -4.789062 4.316406 -5.316406 4.546875 -5.609375 C 4.773438 -5.910156 4.9375 -6.1875 5.03125 -6.4375 C 5.132812 -6.6875 5.1875 -6.945312 5.1875 -7.21875 C 5.1875 -7.625 5.078125 -7.921875 4.859375 -8.109375 C 4.640625 -8.304688 4.34375 -8.40625 3.96875 -8.40625 C 3.582031 -8.40625 3.203125 -8.316406 2.828125 -8.140625 C 2.460938 -7.960938 2.082031 -7.707031 1.6875 -7.375 L 0.53125 -8.75 C 1.03125 -9.164062 1.441406 -9.460938 1.765625 -9.640625 C 2.085938 -9.816406 2.441406 -9.953125 2.828125 -10.046875 C 3.210938 -10.140625 3.644531 -10.1875 4.125 -10.1875 C 4.75 -10.1875 5.300781 -10.070312 5.78125 -9.84375 C 6.257812 -9.613281 6.628906 -9.289062 6.890625 -8.875 C 7.160156 -8.46875 7.296875 -8 7.296875 -7.46875 C 7.296875 -7 7.210938 -6.5625 7.046875 -6.15625 C 6.890625 -5.757812 6.640625 -5.347656 6.296875 -4.921875 C 5.953125 -4.492188 5.351562 -3.882812 4.5 -3.09375 L 3.203125 -1.875 L 3.203125 -1.78125 L 7.578125 -1.78125 Z M 7.578125 0 "/></g></g></g><g fill="#000000" fill-opacity="1"><g transform="translate(93.089282, 17.85404)"><g><path d="M 4.21875 -6.40625 C 5.1875 -6.40625 5.957031 -6.132812 6.53125 -5.59375 C 7.101562 -5.050781 7.390625 -4.304688 7.390625 -3.359375 C 7.390625 -2.234375 7.046875 -1.367188 6.359375 -0.765625 C 5.671875 -0.160156 4.679688 0.140625 3.390625 0.140625 C 2.273438 0.140625 1.375 -0.0390625 0.6875 -0.40625 L 0.6875 -2.234375 C 1.050781 -2.046875 1.472656 -1.890625 1.953125 -1.765625 C 2.429688 -1.648438 2.882812 -1.59375 3.3125 -1.59375 C 4.613281 -1.59375 5.265625 -2.117188 5.265625 -3.171875 C 5.265625 -4.191406 4.59375 -4.703125 3.25 -4.703125 C 3.007812 -4.703125 2.738281 -4.675781 2.4375 -4.625 C 2.144531 -4.570312 1.910156 -4.519531 1.734375 -4.46875 L 0.890625 -4.921875 L 1.265625 -10.03125 L 6.703125 -10.03125 L 6.703125 -8.234375 L 3.125 -8.234375 L 2.9375 -6.265625 L 3.171875 -6.3125 C 3.453125 -6.375 3.800781 -6.40625 4.21875 -6.40625 Z M 4.21875 -6.40625 "/></g></g></g></g></g><g clip-path="url(#06389e7fa2)"><path fill="#fefefe" d="M 73.285156 46.597656 C 73.269531 46.597656 73.253906 46.597656 73.238281 46.597656 C 72.75 41.289062 68.289062 37.128906 62.851562 37.128906 C 61.074219 37.128906 59.402344 37.574219 57.9375 38.359375 C 56.660156 34.039062 52.664062 30.886719 47.929688 30.886719 C 43.039062 30.886719 38.933594 34.253906 37.804688 38.796875 C 36.175781 37.742188 34.238281 37.128906 32.15625 37.128906 C 26.71875 37.128906 22.253906 41.289062 21.765625 46.597656 C 21.753906 46.597656 21.738281 46.597656 21.722656 46.597656 C 15.960938 46.597656 11.289062 51.269531 11.289062 57.03125 C 11.289062 62.792969 15.960938 67.464844 21.722656 67.464844 C 21.765625 67.464844 21.808594 67.460938 21.851562 67.460938 C 22.644531 72.4375 26.953125 76.246094 32.15625 76.246094 C 34.703125 76.246094 37.035156 75.332031 38.84375 73.816406 C 40.636719 76.984375 44.03125 79.125 47.929688 79.125 C 51.640625 79.125 54.894531 77.1875 56.746094 74.269531 C 58.460938 75.511719 60.570312 76.246094 62.851562 76.246094 C 68.050781 76.246094 72.363281 72.4375 73.152344 67.460938 C 73.195312 67.460938 73.242188 67.464844 73.285156 67.464844 C 79.046875 67.464844 83.71875 62.792969 83.71875 57.03125 C 83.71875 51.269531 79.046875 46.597656 73.285156 46.597656 " fill-opacity="1" fill-rule="nonzero"/></g><g clip-path="url(#2ca0ba8102)"><path fill="#88c7ee" d="M 56.746094 74.269531 C 58.460938 75.511719 60.570312 76.246094 62.851562 76.246094 C 68.050781 76.246094 72.363281 72.4375 73.152344 67.460938 C 73.195312 67.460938 73.242188 67.464844 73.285156 67.464844 C 79.046875 67.464844 83.71875 62.792969 83.71875 57.03125 C 83.71875 55.707031 83.46875 54.4375 83.015625 53.273438 C 82.863281 55.035156 82.339844 56.765625 81.449219 58.296875 C 79.417969 61.792969 75.535156 64.136719 71.492188 64.3125 C 71.054688 67.050781 69.074219 69.492188 66.484375 70.484375 C 63.890625 71.472656 60.789062 70.980469 58.632812 69.234375 C 56.796875 72.175781 53.480469 74.140625 50.019531 74.339844 C 46.558594 74.539062 43.039062 72.96875 40.878906 70.257812 C 38.132812 72.511719 34.179688 73.183594 30.847656 71.972656 C 27.511719 70.757812 24.917969 67.695312 24.265625 64.207031 C 19.703125 64.613281 15.402344 63.101562 11.835938 60.367188 C 13.230469 64.492188 17.128906 67.464844 21.722656 67.464844 C 21.765625 67.464844 21.808594 67.460938 21.851562 67.460938 C 22.644531 72.4375 26.953125 76.246094 32.15625 76.246094 C 34.703125 76.246094 37.035156 75.332031 38.84375 73.816406 C 40.636719 76.984375 44.03125 79.125 47.929688 79.125 C 51.640625 79.125 54.894531 77.1875 56.746094 74.269531 " fill-opacity="1" fill-rule="nonzero"/></g><g clip-path="url(#5da04fedeb)"><g clip-path="url(#3af975df19)"><g clip-path="url(#f1fc666346)"><path fill="#fefefe" d="M -15.84375 240.179688 C -15.828125 240.183594 -15.8125 240.1875 -15.800781 240.1875 C -16.683594 245.445312 -13.433594 250.609375 -8.175781 251.996094 C -6.457031 252.453125 -4.726562 252.449219 -3.109375 252.066406 C -2.980469 256.570312 0.0742188 260.640625 4.652344 261.847656 C 9.382812 263.097656 14.210938 260.890625 16.460938 256.789062 C 17.769531 258.222656 19.488281 259.3125 21.5 259.84375 C 26.757812 261.230469 32.136719 258.351562 33.964844 253.34375 C 33.976562 253.347656 33.992188 253.351562 34.007812 253.355469 C 39.578125 254.828125 45.289062 251.507812 46.761719 245.9375 C 48.234375 240.367188 44.910156 234.65625 39.339844 233.183594 C 39.296875 233.171875 39.253906 233.164062 39.210938 233.152344 C 39.71875 228.136719 36.523438 223.355469 31.496094 222.027344 C 29.035156 221.375 26.546875 221.664062 24.410156 222.664062 C 23.488281 219.144531 20.75 216.207031 16.980469 215.210938 C 13.394531 214.261719 9.753906 215.304688 7.21875 217.652344 C 5.875 216.011719 4.023438 214.765625 1.820312 214.183594 C -3.207031 212.851562 -8.347656 215.429688 -10.386719 220.042969 C -10.425781 220.03125 -10.46875 220.015625 -10.511719 220.003906 C -16.082031 218.53125 -21.792969 221.855469 -23.265625 227.425781 C -24.738281 232.996094 -21.414062 238.707031 -15.84375 240.179688 " fill-opacity="1" fill-rule="nonzero"/><path fill="#88c7ee" d="M 7.21875 217.652344 C 5.875 216.011719 4.023438 214.765625 1.820312 214.183594 C -3.207031 212.851562 -8.347656 215.429688 -10.386719 220.042969 C -10.425781 220.03125 -10.46875 220.015625 -10.511719 220.003906 C -16.082031 218.53125 -21.792969 221.855469 -23.265625 227.425781 C -23.601562 228.707031 -23.683594 229.996094 -23.546875 231.238281 C -22.949219 229.570312 -22 228.03125 -20.75 226.78125 C -17.886719 223.921875 -13.535156 222.644531 -9.585938 223.511719 C -8.460938 220.972656 -5.921875 219.121094 -3.164062 218.824219 C -0.40625 218.527344 2.46875 219.800781 4.105469 222.039062 C 6.632812 219.664062 10.339844 218.613281 13.738281 219.304688 C 17.136719 219.996094 20.136719 222.414062 21.535156 225.585938 C 24.761719 224.109375 28.757812 224.46875 31.667969 226.492188 C 34.582031 228.519531 36.308594 232.140625 36.046875 235.679688 C 40.5625 236.457031 44.332031 239.015625 47.082031 242.570312 C 46.789062 238.226562 43.78125 234.359375 39.339844 233.183594 C 39.296875 233.171875 39.253906 233.164062 39.210938 233.152344 C 39.71875 228.136719 36.523438 223.355469 31.496094 222.027344 C 29.035156 221.375 26.546875 221.664062 24.410156 222.664062 C 23.488281 219.144531 20.75 216.207031 16.980469 215.210938 C 13.394531 214.261719 9.753906 215.304688 7.21875 217.652344 " fill-opacity="1" fill-rule="nonzero"/></g></g></g><g clip-path="url(#3bddb97c99)"><g clip-path="url(#916994cf0e)"><g clip-path="url(#d863d57f8f)"><path fill="#fefefe" d="M 142.988281 259.960938 C 143 259.949219 143.011719 259.9375 143.023438 259.929688 C 146.664062 263.824219 152.738281 264.375 157.035156 261.042969 C 158.4375 259.953125 159.488281 258.574219 160.164062 257.058594 C 163.820312 259.6875 168.910156 259.730469 172.652344 256.828125 C 176.515625 253.828125 177.691406 248.652344 175.800781 244.371094 C 177.730469 244.203125 179.640625 243.5 181.285156 242.222656 C 185.582031 238.890625 186.558594 232.867188 183.6875 228.375 C 183.699219 228.363281 183.710938 228.355469 183.722656 228.347656 C 188.277344 224.8125 189.101562 218.257812 185.570312 213.707031 C 182.035156 209.15625 175.484375 208.328125 170.929688 211.859375 C 170.894531 211.886719 170.863281 211.917969 170.828125 211.945312 C 167.152344 208.496094 161.414062 208.132812 157.304688 211.320312 C 155.292969 212.882812 154.011719 215.03125 153.507812 217.339844 C 150.152344 215.933594 146.15625 216.328125 143.074219 218.71875 C 140.144531 220.992188 138.761719 224.519531 139.089844 227.957031 C 136.972656 228.027344 134.855469 228.742188 133.054688 230.140625 C 128.945312 233.328125 127.871094 238.980469 130.300781 243.398438 C 130.265625 243.421875 130.230469 243.449219 130.195312 243.472656 C 125.644531 247.007812 124.816406 253.5625 128.347656 258.113281 C 131.882812 262.664062 138.4375 263.492188 142.988281 259.960938 " fill-opacity="1" fill-rule="nonzero"/><path fill="#88c7ee" d="M 139.089844 227.957031 C 136.972656 228.027344 134.855469 228.742188 133.054688 230.140625 C 128.945312 233.328125 127.871094 238.980469 130.300781 243.398438 C 130.265625 243.421875 130.230469 243.449219 130.195312 243.472656 C 125.644531 247.007812 124.816406 253.5625 128.347656 258.113281 C 129.160156 259.160156 130.136719 260.007812 131.207031 260.652344 C 130.246094 259.164062 129.597656 257.476562 129.363281 255.722656 C 128.828125 251.714844 130.457031 247.480469 133.542969 244.867188 C 132.210938 242.433594 132.277344 239.292969 133.71875 236.917969 C 135.15625 234.546875 137.910156 233.035156 140.6875 233.09375 C 140.332031 229.644531 141.746094 226.058594 144.359375 223.777344 C 146.972656 221.5 150.714844 220.582031 154.085938 221.398438 C 154.871094 217.9375 157.582031 214.980469 160.957031 213.894531 C 164.339844 212.808594 168.261719 213.636719 170.917969 215.992188 C 174.273438 212.875 178.597656 211.4375 183.089844 211.40625 C 179.460938 209 174.558594 209.042969 170.929688 211.859375 C 170.894531 211.886719 170.863281 211.917969 170.828125 211.945312 C 167.152344 208.496094 161.414062 208.132812 157.304688 211.320312 C 155.292969 212.882812 154.011719 215.03125 153.507812 217.339844 C 150.152344 215.933594 146.15625 216.328125 143.074219 218.71875 C 140.144531 220.992188 138.761719 224.519531 139.089844 227.957031 " fill-opacity="1" fill-rule="nonzero"/></g></g></g></g></g></g></svg>